<?xml version="1.0" standalone="no"?>
<!DOCTYPE svg PUBLIC "-//W3C//DTD SVG 20010904//EN"
 "http://www.w3.org/TR/2001/REC-SVG-20010904/DTD/svg10.dtd">
<svg version="1.0" xmlns="http://www.w3.org/2000/svg"
 width="456.000000pt" height="432.000000pt" viewBox="0 0 456.000000 432.000000"
 preserveAspectRatio="xMidYMid meet">

<g transform="translate(0.000000,432.000000) scale(0.100000,-0.100000)"
fill="aqua" stroke="none">
<path d="M2540 4253 c-171 -28 -333 -166 -381 -325 -55 -181 18 -473 157 -626
53 -59 173 -148 229 -170 49 -20 165 -30 235 -21 161 21 253 77 318 192 43 77
62 155 68 287 7 137 -14 259 -67 385 -57 137 -190 249 -329 275 -51 10 -179
11 -230 3z m-160 -93 c0 -5 -7 -10 -16 -10 -8 0 -12 5 -9 10 3 6 10 10 16 10
5 0 9 -4 9 -10z m545 0 c-3 -5 -11 -10 -16 -10 -6 0 -7 5 -4 10 3 6 11 10 16
10 6 0 7 -4 4 -10z m-675 -126 c0 -8 -4 -12 -10 -9 -5 3 -10 10 -10 16 0 5 5
9 10 9 6 0 10 -7 10 -16z m792 -6 c-7 -7 -12 -8 -12 -2 0 6 3 14 7 17 3 4 9 5
12 2 2 -3 -1 -11 -7 -17z m42 -223 c3 -8 1 -15 -4 -15 -6 0 -10 7 -10 15 0 8
2 15 4 15 2 0 6 -7 10 -15z m-839 -303 c-3 -3 -11 0 -18 7 -9 10 -8 11 6 5 10
-3 15 -9 12 -12z m52 -124 c-3 -8 -6 -5 -6 6 -1 11 2 17 5 13 3 -3 4 -12 1
-19z m788 -57 c3 -5 1 -12 -5 -16 -5 -3 -10 1 -10 9 0 18 6 21 15 7z m-659
-70 c0 -16 -4 -18 -19 -9 -16 8 -17 12 -6 19 21 13 25 11 25 -10z m581 -7 c-3
-3 -12 -4 -19 -1 -8 3 -5 6 6 6 11 1 17 -2 13 -5z m-527 -42 c0 -12 -3 -12
-17 -1 -10 7 -20 14 -22 16 -2 1 6 1 18 0 11 -1 21 -8 21 -15z"/>
<path d="M1215 3607 c-293 -88 -372 -170 -395 -406 -10 -101 -6 -193 12 -301
29 -178 147 -313 334 -386 55 -21 87 -27 159 -28 83 -1 95 2 155 31 86 43 183
118 258 197 152 163 190 328 131 571 -40 164 -111 261 -238 322 -70 34 -84 37
-176 40 -93 2 -110 -1 -240 -40z m145 9 c0 -2 -7 -7 -16 -10 -8 -3 -12 -2 -9
4 6 10 25 14 25 6z m-373 -152 c-3 -3 -12 -4 -19 -1 -8 3 -5 6 6 6 11 1 17 -2
13 -5z m797 -10 c3 -8 2 -12 -4 -9 -6 3 -10 10 -10 16 0 14 7 11 14 -7z m-933
-195 c-5 -13 -10 -19 -10 -12 -1 15 10 45 15 40 3 -2 0 -15 -5 -28z m16 -321
c-3 -8 -6 -5 -6 6 -1 11 2 17 5 13 3 -3 4 -12 1 -19z m963 -68 c0 -13 -1 -13
-10 0 -5 8 -10 22 -10 30 0 13 1 13 10 0 5 -8 10 -22 10 -30z m-645 -320 c8
-13 -5 -13 -25 0 -13 8 -13 10 2 10 9 0 20 -4 23 -10z m315 1 c0 -5 -6 -11
-13 -14 -8 -3 -14 1 -14 9 0 8 6 14 14 14 7 0 13 -4 13 -9z"/>
<path d="M3860 3590 c-73 -15 -183 -75 -242 -132 -60 -58 -107 -144 -133 -243
-19 -75 -19 -233 0 -304 62 -236 280 -407 515 -405 147 1 260 60 352 183 86
113 154 321 146 440 -13 169 -180 371 -365 441 -66 25 -200 35 -273 20z m-100
-64 c0 -3 -4 -8 -10 -11 -5 -3 -10 -1 -10 4 0 6 5 11 10 11 6 0 10 -2 10 -4z
m603 -150 c4 -10 1 -13 -8 -9 -8 3 -12 9 -9 14 7 12 11 11 17 -5z m-779 -21
c-4 -8 -8 -15 -10 -15 -2 0 -4 7 -4 15 0 8 4 15 10 15 5 0 7 -7 4 -15z m-34
-66 c0 -6 -4 -7 -10 -4 -5 3 -10 11 -10 16 0 6 5 7 10 4 6 -3 10 -11 10 -16z
m27 -71 c-3 -7 -5 -2 -5 12 0 14 2 19 5 13 2 -7 2 -19 0 -25z m-47 -7 c0 -6
-4 -12 -8 -15 -5 -3 -9 1 -9 9 0 8 4 15 9 15 4 0 8 -4 8 -9z m-10 -296 c0 -5
-5 -3 -10 5 -5 8 -10 20 -10 25 0 6 5 3 10 -5 5 -8 10 -19 10 -25z m923 -10
c-3 -9 -8 -14 -10 -11 -3 3 -2 9 2 15 9 16 15 13 8 -4z m-36 -97 c-3 -8 -6 -5
-6 6 -1 11 2 17 5 13 3 -3 4 -12 1 -19z m-47 -9 c0 -5 4 -7 10 -4 6 3 7 -1 4
-9 -8 -21 -11 -20 -24 4 -7 14 -7 20 0 20 5 0 10 -5 10 -11z m-17 -73 c4 -10
1 -13 -8 -9 -8 3 -12 9 -9 14 7 12 11 11 17 -5z m-653 -66 c-24 -15 -31 -11
-18 10 9 13 16 16 23 9 7 -7 5 -13 -5 -19z m315 -120 c3 -5 -1 -10 -9 -10 -9
0 -16 5 -16 10 0 6 4 10 9 10 6 0 13 -4 16 -10z m-98 -6 c-3 -3 -12 -4 -19 -1
-8 3 -5 6 6 6 11 1 17 -2 13 -5z"/>
<path d="M2550 2630 c-147 -16 -374 -77 -505 -135 -223 -98 -530 -399 -633
-618 -115 -245 -149 -605 -87 -919 85 -428 291 -676 602 -723 132 -19 179 -19
419 4 338 33 337 33 583 11 377 -32 496 -25 628 42 61 31 161 121 204 184 68
100 126 245 162 403 29 130 31 473 3 626 -56 312 -182 586 -343 743 -55 53
-200 167 -275 215 -120 76 -241 124 -388 153 -93 18 -271 25 -370 14z m157 -6
c-3 -3 -12 -4 -19 -1 -8 3 -5 6 6 6 11 1 17 -2 13 -5z m-307 -38 c0 -3 -4 -8
-10 -11 -5 -3 -10 -1 -10 4 0 6 5 11 10 11 6 0 10 -2 10 -4z m-355 -136 c-3
-5 -14 -10 -23 -10 -15 0 -15 2 -2 10 20 13 33 13 25 0z m1259 -7 c-5 -5 -12
-12 -16 -18 -4 -6 -8 -2 -8 8 0 9 7 17 17 17 9 0 12 -3 7 -7z m241 -183 c3 -6
-1 -7 -9 -4 -18 7 -21 14 -7 14 6 0 13 -4 16 -10z m-68 -6 c-3 -3 -12 -4 -19
-1 -8 3 -5 6 6 6 11 1 17 -2 13 -5z m98 -74 c3 -5 1 -10 -4 -10 -6 0 -11 5
-11 10 0 6 2 10 4 10 3 0 8 -4 11 -10z m146 -177 c13 -16 12 -17 -3 -4 -17 13
-22 21 -14 21 2 0 10 -8 17 -17z m-2300 -170 c-12 -20 -14 -14 -5 12 4 9 9 14
11 11 3 -2 0 -13 -6 -23z m859 -95 c0 -19 -2 -20 -10 -8 -13 19 -13 30 0 30 6
0 10 -10 10 -22z m322 -6 c-5 -25 -5 -25 -20 3 -9 17 -7 21 7 21 13 0 16 -6
13 -24z m783 18 c-3 -5 -11 -10 -16 -10 -6 0 -7 5 -4 10 3 6 11 10 16 10 6 0
7 -4 4 -10z m221 -18 c-18 -16 -18 -16 -6 6 6 13 14 21 18 18 3 -4 -2 -14 -12
-24z m-1681 9 c3 -5 2 -12 -3 -15 -5 -3 -9 1 -9 9 0 17 3 19 12 6z m1055 6 c0
-2 -10 -12 -22 -23 l-23 -19 19 23 c18 21 26 27 26 19z m-1330 -192 l5 -170
53 -3 52 -3 0 163 c0 90 4 169 8 176 10 15 99 19 113 5 16 -16 12 -815 -4
-825 -17 -11 -75 -10 -98 2 -18 10 -19 23 -19 175 l0 165 -55 0 -55 0 0 -165
c0 -152 -1 -165 -19 -175 -27 -14 -74 -13 -94 3 -16 11 -17 45 -15 417 l3 404
25 6 c14 3 41 3 60 0 l35 -5 5 -170z m1850 -1 l5 -169 50 0 50 0 6 170 c3 94
6 171 7 173 1 1 29 2 62 2 54 0 60 -2 65 -22 3 -13 4 -198 3 -411 -3 -428 0
-407 -68 -407 -64 0 -65 2 -68 185 l-3 165 -55 0 -54 0 0 -169 c0 -166 0 -169
-22 -175 -40 -10 -76 -7 -92 10 -14 13 -16 64 -16 407 0 216 4 397 8 404 9 13
68 21 97 12 19 -6 20 -17 25 -175z m317 164 c-3 -8 -6 -5 -6 6 -1 11 2 17 5
13 3 -3 4 -12 1 -19z m-2427 2 c0 -5 -5 -10 -11 -10 -5 0 -7 5 -4 10 3 6 8 10
11 10 2 0 4 -4 4 -10z m870 -48 c8 -79 4 -82 -105 -82 l-95 0 0 -100 0 -100
74 0 c42 0 78 -5 81 -11 11 -16 14 -61 8 -96 l-5 -33 -79 0 -79 0 0 -105 0
-104 98 -3 97 -3 3 -64 c2 -45 -1 -67 -10 -72 -15 -10 -241 -12 -287 -3 l-31
6 0 408 c0 223 3 410 7 414 4 3 77 5 162 4 l156 -3 5 -53z m315 36 c18 -71
132 -783 128 -794 -7 -19 -39 -27 -83 -19 -30 5 -41 12 -44 28 -2 12 -8 45
-13 72 l-8 50 -62 3 -61 3 -11 -51 c-6 -28 -11 -60 -11 -70 0 -23 -28 -40 -69
-40 -39 0 -64 25 -56 59 5 24 20 114 95 561 17 102 33 193 36 203 4 14 18 17
79 17 69 0 75 -2 80 -22z m283 10 c9 -9 12 -99 12 -345 l0 -333 83 0 c51 0 88
-5 95 -12 17 -17 15 -113 -2 -128 -23 -18 -294 -10 -306 10 -11 16 -14 760 -4
798 6 19 13 22 58 22 29 0 57 -5 64 -12z m487 -58 l0 -65 -57 -3 -58 -3 0
-339 c0 -325 -1 -340 -19 -350 -23 -12 -81 -13 -98 -2 -10 6 -13 91 -15 348
l-3 339 -60 5 -60 5 -3 44 c-2 25 -1 55 3 68 l5 23 183 -2 182 -3 0 -65z
m-435 39 c0 -5 -4 -9 -10 -9 -5 0 -10 7 -10 16 0 8 5 12 10 9 6 -3 10 -10 10
-16z m875 12 c3 -5 1 -12 -5 -16 -5 -3 -10 1 -10 9 0 18 6 21 15 7z m-2295
-37 c0 -8 -5 -12 -10 -9 -6 4 -8 11 -5 16 9 14 15 11 15 -7z m863 -53 c3 -14
1 -18 -9 -14 -8 3 -14 11 -14 19 0 21 17 17 23 -5z m1529 -10 c8 11 9 11 6 1
-4 -16 -22 -18 -24 -2 -2 7 -1 6 3 -1 4 -8 8 -7 15 2z m-605 -57 c-3 -3 -12
-4 -19 -1 -8 3 -5 6 6 6 11 1 17 -2 13 -5z m63 -4 c-20 -13 -33 -13 -25 0 3 6
14 10 23 10 15 0 15 -2 2 -10z m-2023 -122 c-3 -8 -6 -5 -6 6 -1 11 2 17 5 13
3 -3 4 -12 1 -19z m870 -14 c-3 -3 -12 -4 -19 -1 -8 3 -5 6 6 6 11 1 17 -2 13
-5z m-860 -276 c-3 -8 -6 -5 -6 6 -1 11 2 17 5 13 3 -3 4 -12 1 -19z m953 -94
c0 -8 -4 -12 -10 -9 -5 3 -10 10 -10 16 0 5 5 9 10 9 6 0 10 -7 10 -16z m190
-28 c0 -3 -4 -8 -10 -11 -5 -3 -10 -1 -10 4 0 6 5 11 10 11 6 0 10 -2 10 -4z
m1077 -38 c-3 -8 -6 -5 -6 6 -1 11 2 17 5 13 3 -3 4 -12 1 -19z m-1012 -8 c3
-5 2 -10 -4 -10 -5 0 -13 5 -16 10 -3 6 -2 10 4 10 5 0 13 -4 16 -10z m1078
-73 c3 -8 -1 -14 -9 -14 -15 0 -18 9 -7 20 9 9 10 9 16 -6z m284 -19 c-3 -8
-6 -5 -6 6 -1 11 2 17 5 13 3 -3 4 -12 1 -19z m-1077 -28 c-13 -8 -47 -2 -54
9 -3 4 11 5 31 3 21 -3 30 -7 23 -12z m-1155 -420 c3 -5 1 -10 -4 -10 -6 0
-11 5 -11 10 0 6 2 10 4 10 3 0 8 -4 11 -10z m135 -130 c0 -5 -2 -10 -4 -10
-3 0 -8 5 -11 10 -3 6 -1 10 4 10 6 0 11 -4 11 -10z"/>
<path d="M2487 1400 c-3 -8 -10 -46 -17 -85 -6 -38 -13 -82 -16 -97 -5 -27 -4
-28 35 -28 23 0 41 4 41 10 0 13 -30 192 -34 205 -2 6 -6 3 -9 -5z m8 -180 c3
-5 2 -10 -4 -10 -5 0 -13 5 -16 10 -3 6 -2 10 4 10 5 0 13 -4 16 -10z"/>
<path d="M70 1315 c0 -452 -7 -407 65 -407 14 0 29 0 35 1 5 1 11 62 12 149
l3 147 58 6 c120 13 166 83 166 254 1 129 -31 208 -96 239 -24 11 -63 16 -138
16 l-105 0 0 -405z m210 266 c5 -11 10 -64 10 -119 0 -114 -12 -136 -72 -130
l-33 3 -3 119 c-1 66 0 126 2 133 9 22 83 17 96 -6z"/>
<path d="M460 1543 c-1 -383 1 -627 5 -631 3 -4 131 -5 258 -3 l47 1 0 54 c0
65 -2 66 -116 66 l-84 0 0 115 0 115 80 0 81 0 -3 58 -3 57 -77 3 -78 3 0 109
0 110 100 0 100 0 0 60 0 60 -155 0 -155 0 0 -177z"/>
<path d="M807 1713 c-9 -9 -9 -85 1 -100 4 -6 32 -13 62 -15 l55 -3 3 -342 c1
-189 6 -343 10 -344 13 -1 66 -2 84 0 16 1 18 27 20 344 l3 342 57 3 c70 4 75
13 59 115 -1 9 -345 10 -354 0z"/>
</g>
</svg>
